<svg width="20" height="20" viewBox="0 0 20 20" fill="none" xmlns="http://www.w3.org/2000/svg">
<path d="M10 0.25C8.07163 0.25 6.18657 0.821828 4.58319 1.89317C2.97981 2.96452 1.73013 4.48726 0.992175 6.26884C0.254221 8.05042 0.0611382 10.0108 0.437344 11.9021C0.81355 13.7934 1.74215 15.5307 3.10571 16.8943C4.46927 18.2579 6.20656 19.1865 8.09787 19.5627C9.98918 19.9389 11.9496 19.7458 13.7312 19.0078C15.5127 18.2699 17.0355 17.0202 18.1068 15.4168C19.1782 13.8134 19.75 11.9284 19.75 10C19.7473 7.41498 18.7192 4.93661 16.8913 3.10872C15.0634 1.28084 12.585 0.25273 10 0.25ZM10 18.25C8.3683 18.25 6.77325 17.7661 5.41655 16.8596C4.05984 15.9531 3.00242 14.6646 2.37799 13.1571C1.75357 11.6496 1.59019 9.99085 1.90852 8.3905C2.22685 6.79016 3.01259 5.32015 4.16637 4.16637C5.32015 3.01259 6.79016 2.22685 8.39051 1.90852C9.99085 1.59019 11.6496 1.75357 13.1571 2.37799C14.6646 3.00242 15.9531 4.05984 16.8596 5.41655C17.7661 6.77325 18.25 8.3683 18.25 10C18.2475 12.1873 17.3775 14.2843 15.8309 15.8309C14.2843 17.3775 12.1873 18.2475 10 18.25ZM5.5 8.125C5.5 7.9025 5.56598 7.68499 5.6896 7.49998C5.81321 7.31498 5.98891 7.17078 6.19448 7.08564C6.40005 7.00049 6.62625 6.97821 6.84448 7.02162C7.06271 7.06502 7.26316 7.17217 7.4205 7.3295C7.57783 7.48684 7.68498 7.68729 7.72838 7.90552C7.77179 8.12375 7.74951 8.34995 7.66436 8.55552C7.57922 8.76109 7.43502 8.93679 7.25002 9.0604C7.06501 9.18402 6.8475 9.25 6.625 9.25C6.32663 9.25 6.04048 9.13147 5.8295 8.9205C5.61853 8.70952 5.5 8.42337 5.5 8.125ZM15.25 8.125C15.25 8.32391 15.171 8.51468 15.0303 8.65533C14.8897 8.79598 14.6989 8.875 14.5 8.875H12.25C12.0511 8.875 11.8603 8.79598 11.7197 8.65533C11.579 8.51468 11.5 8.32391 11.5 8.125C11.5 7.92609 11.579 7.73532 11.7197 7.59467C11.8603 7.45402 12.0511 7.375 12.25 7.375H14.5C14.6989 7.375 14.8897 7.45402 15.0303 7.59467C15.171 7.73532 15.25 7.92609 15.25 8.125ZM14.3988 12.625C13.4341 14.2928 11.8309 15.25 10 15.25C8.16906 15.25 6.56594 14.2937 5.60031 12.625C5.55107 12.5397 5.51911 12.4455 5.50626 12.3478C5.49341 12.2502 5.49993 12.1509 5.52544 12.0558C5.55094 11.9606 5.59494 11.8714 5.65492 11.7933C5.7149 11.7151 5.78968 11.6496 5.875 11.6003C5.96032 11.5511 6.0545 11.5191 6.15217 11.5063C6.24984 11.4934 6.34908 11.4999 6.44423 11.5254C6.53938 11.5509 6.62858 11.5949 6.70673 11.6549C6.78487 11.7149 6.85044 11.7897 6.89969 11.875C7.59906 13.0853 8.69969 13.75 10 13.75C11.3003 13.75 12.4009 13.0844 13.1013 11.875C13.1481 11.7854 13.2127 11.7062 13.291 11.6421C13.3693 11.5781 13.4597 11.5305 13.5568 11.5023C13.654 11.4742 13.7558 11.4659 13.8562 11.4781C13.9567 11.4903 14.0536 11.5227 14.1411 11.5733C14.2287 11.6239 14.3052 11.6917 14.3658 11.7727C14.4265 11.8536 14.4702 11.946 14.4943 12.0442C14.5183 12.1425 14.5223 12.2446 14.5059 12.3444C14.4895 12.4442 14.453 12.5396 14.3988 12.625Z" fill="#FFD666"/>
</svg>
