<svg width="29" height="25" viewBox="0 0 29 25" fill="none" xmlns="http://www.w3.org/2000/svg">
<path d="M20.75 0.5C18.1688 0.5 15.9088 1.61 14.5 3.48625C13.0912 1.61 10.8313 0.5 8.25 0.5C6.19528 0.502316 4.22539 1.31958 2.77248 2.77248C1.31958 4.22539 0.502316 6.19528 0.5 8.25C0.5 17 13.4738 24.0825 14.0262 24.375C14.1719 24.4533 14.3346 24.4943 14.5 24.4943C14.6654 24.4943 14.8281 24.4533 14.9737 24.375C15.5262 24.0825 28.5 17 28.5 8.25C28.4977 6.19528 27.6804 4.22539 26.2275 2.77248C24.7746 1.31958 22.8047 0.502316 20.75 0.5ZM14.5 22.35C12.2175 21.02 2.5 14.9613 2.5 8.25C2.50198 6.72561 3.10842 5.26423 4.18633 4.18633C5.26423 3.10842 6.72561 2.50198 8.25 2.5C10.6812 2.5 12.7225 3.795 13.575 5.875C13.6503 6.05841 13.7785 6.21528 13.9432 6.32569C14.1079 6.43609 14.3017 6.49503 14.5 6.49503C14.6983 6.49503 14.8921 6.43609 15.0568 6.32569C15.2215 6.21528 15.3497 6.05841 15.425 5.875C16.2775 3.79125 18.3188 2.5 20.75 2.5C22.2744 2.50198 23.7358 3.10842 24.8137 4.18633C25.8916 5.26423 26.498 6.72561 26.5 8.25C26.5 14.9513 16.78 21.0188 14.5 22.35Z" fill="#FFD666"/>
</svg>
